<svg xmlns="http://www.w3.org/2000/svg">
    <symbol id="users">
        <g>
            <path d="M20.9061 18.0937H19.0311V16.2187C19.0311 16.1156 18.9467 16.0312 18.8436 16.0312H17.7186C17.6155 16.0312 17.5311 16.1156 17.5311 16.2187V18.0937H15.6561C15.553 18.0937 15.4686 18.1781 15.4686 18.2812V19.4062C15.4686 19.5093 15.553 19.5937 15.6561 19.5937H17.5311V21.4687C17.5311 21.5718 17.6155 21.6562 17.7186 21.6562H18.8436C18.9467 21.6562 19.0311 21.5718 19.0311 21.4687V19.5937H20.9061C21.0092 19.5937 21.0936 19.5093 21.0936 19.4062V18.2812C21.0936 18.1781 21.0092 18.0937 20.9061 18.0937ZM8.75376 11.6812C8.73266 11.4773 8.72094 11.2711 8.72094 11.0625C8.72094 10.6898 8.7561 10.3265 8.82173 9.97263C8.83813 9.88825 8.7936 9.80153 8.71626 9.76638C8.39751 9.62341 8.10454 9.42653 7.85141 9.1781C7.55315 8.88889 7.31844 8.54069 7.16227 8.15571C7.0061 7.77073 6.93189 7.35742 6.94438 6.94216C6.96548 6.18981 7.26782 5.47497 7.79516 4.93591C8.37407 4.34294 9.15219 4.0195 9.97954 4.02888C10.7272 4.03591 11.4491 4.32419 11.9952 4.83513C12.1803 5.00856 12.3397 5.20075 12.4733 5.407C12.5202 5.47966 12.6116 5.51013 12.6913 5.482C13.1038 5.33903 13.5397 5.23825 13.9874 5.19138C14.1186 5.17731 14.1936 5.03669 14.135 4.9195C13.3733 3.41247 11.817 2.37185 10.017 2.34372C7.42016 2.30388 5.25454 4.43435 5.25454 7.03122C5.25454 8.5031 5.93188 9.8156 6.9936 10.6758C6.24829 11.0203 5.56157 11.4961 4.96626 12.0914C3.68188 13.3734 2.95532 15.0656 2.90844 16.8726C2.90782 16.8976 2.91221 16.9225 2.92135 16.9458C2.93049 16.9691 2.9442 16.9903 2.96168 17.0082C2.97915 17.0262 3.00003 17.0404 3.02309 17.0501C3.04615 17.0598 3.07092 17.0648 3.09595 17.0648H4.41079C4.51157 17.0648 4.59594 16.9851 4.59829 16.8843C4.64282 15.525 5.1936 14.2523 6.16157 13.2867C6.85063 12.5976 7.69438 12.1195 8.61548 11.8875C8.70454 11.8617 8.76548 11.775 8.75376 11.6812ZM19.3124 11.0625C19.3124 8.49841 17.2522 6.41481 14.6975 6.37497C12.1006 6.33513 9.93735 8.4656 9.93735 11.0625C9.93735 12.5343 10.617 13.8468 11.6764 14.707C10.9234 15.0561 10.2379 15.5353 9.65141 16.1226C8.36704 17.4047 7.64048 19.0968 7.5936 20.9015C7.59298 20.9265 7.59736 20.9514 7.60651 20.9747C7.61565 20.998 7.62936 21.0192 7.64683 21.0372C7.66431 21.0551 7.68519 21.0693 7.70825 21.079C7.73131 21.0887 7.75608 21.0937 7.7811 21.0937H9.0936C9.19438 21.0937 9.27876 21.014 9.2811 20.9132C9.32563 19.5539 9.87641 18.2812 10.8444 17.3156C11.8545 16.3054 13.1952 15.75 14.6249 15.75C17.2124 15.75 19.3124 13.6523 19.3124 11.0625ZM16.7459 13.1836C16.1788 13.7508 15.4264 14.0625 14.6249 14.0625C13.8233 14.0625 13.0709 13.7508 12.5038 13.1836C12.2207 12.902 11.9971 12.5665 11.8461 12.1969C11.6951 11.8273 11.6199 11.4312 11.6249 11.032C11.6319 10.2633 11.9389 9.52028 12.4756 8.9695C13.0381 8.39294 13.7905 8.07185 14.5944 8.06247C15.3889 8.05544 16.16 8.36481 16.7272 8.92028C17.3084 9.48981 17.6272 10.2515 17.6272 11.0625C17.6249 11.864 17.3131 12.6164 16.7459 13.1836Z"/>
        </g>
    </symbol>
    <symbol id="chat">
        <g>
            <path d="M10.8752 12C10.8752 12.2984 10.9937 12.5845 11.2047 12.7955C11.4157 13.0065 11.7018 13.125 12.0002 13.125C12.2986 13.125 12.5847 13.0065 12.7957 12.7955C13.0067 12.5845 13.1252 12.2984 13.1252 12C13.1252 11.7016 13.0067 11.4155 12.7957 11.2045C12.5847 10.9935 12.2986 10.875 12.0002 10.875C11.7018 10.875 11.4157 10.9935 11.2047 11.2045C10.9937 11.4155 10.8752 11.7016 10.8752 12ZM15.5627 12C15.5627 12.2984 15.6812 12.5845 15.8922 12.7955C16.1032 13.0065 16.3893 13.125 16.6877 13.125C16.9861 13.125 17.2722 13.0065 17.4832 12.7955C17.6942 12.5845 17.8127 12.2984 17.8127 12C17.8127 11.7016 17.6942 11.4155 17.4832 11.2045C17.2722 10.9935 16.9861 10.875 16.6877 10.875C16.3893 10.875 16.1032 10.9935 15.8922 11.2045C15.6812 11.4155 15.5627 11.7016 15.5627 12ZM6.18769 12C6.18769 12.2984 6.30622 12.5845 6.5172 12.7955C6.72818 13.0065 7.01433 13.125 7.31269 13.125C7.61106 13.125 7.89721 13.0065 8.10819 12.7955C8.31917 12.5845 8.43769 12.2984 8.43769 12C8.43769 11.7016 8.31917 11.4155 8.10819 11.2045C7.89721 10.9935 7.61106 10.875 7.31269 10.875C7.01433 10.875 6.72818 10.9935 6.5172 11.2045C6.30622 11.4155 6.18769 11.7016 6.18769 12ZM21.6846 7.93125C21.1549 6.67266 20.3955 5.54297 19.4275 4.57266C18.4663 3.60796 17.3253 2.84114 16.0689 2.31563C14.7799 1.77422 13.4111 1.5 12.0002 1.5H11.9533C10.533 1.50703 9.15723 1.78828 7.86348 2.34141C6.61791 2.87232 5.48753 3.64049 4.53535 4.60312C3.57676 5.57109 2.82441 6.69609 2.3041 7.95C1.76504 9.24844 1.49316 10.6289 1.50019 12.0492C1.50815 13.6769 1.89322 15.2806 2.62519 16.7344V20.2969C2.62519 20.5828 2.73878 20.857 2.94097 21.0592C3.14316 21.2614 3.41738 21.375 3.70332 21.375H7.26816C8.72198 22.107 10.3257 22.492 11.9533 22.5H12.0025C13.4064 22.5 14.7682 22.2281 16.0502 21.6961C17.3002 21.1768 18.437 20.419 19.3971 19.4648C20.365 18.5063 21.1268 17.3859 21.6588 16.1367C22.2119 14.843 22.4932 13.4672 22.5002 12.0469C22.5072 10.6195 22.2307 9.23438 21.6846 7.93125ZM18.1432 18.1969C16.5002 19.8234 14.3205 20.7188 12.0002 20.7188H11.9604C10.5471 20.7117 9.14316 20.3602 7.90332 19.6992L7.70644 19.5938H4.40644V16.2938L4.30098 16.0969C3.64004 14.857 3.28848 13.4531 3.28144 12.0398C3.27207 9.70312 4.16504 7.50937 5.80332 5.85703C7.43926 4.20469 9.62598 3.29062 11.9627 3.28125H12.0025C13.1744 3.28125 14.3111 3.50859 15.3822 3.95859C16.4275 4.39687 17.365 5.02734 18.1713 5.83359C18.9752 6.6375 19.608 7.57734 20.0463 8.62266C20.501 9.70547 20.7283 10.8539 20.7236 12.0398C20.7096 14.3742 19.7932 16.5609 18.1432 18.1969Z"/>
        </g>
    </symbol>
    <symbol id="bell">
        <g>
            <path d="M19.125 18H18.5625V10.0312C18.5625 6.72422 16.118 3.99141 12.9375 3.53672V2.625C12.9375 2.10703 12.518 1.6875 12 1.6875C11.482 1.6875 11.0625 2.10703 11.0625 2.625V3.53672C7.88203 3.99141 5.4375 6.72422 5.4375 10.0312V18H4.875C4.46016 18 4.125 18.3352 4.125 18.75V19.5C4.125 19.6031 4.20937 19.6875 4.3125 19.6875H9.375C9.375 21.1359 10.5516 22.3125 12 22.3125C13.4484 22.3125 14.625 21.1359 14.625 19.6875H19.6875C19.7906 19.6875 19.875 19.6031 19.875 19.5V18.75C19.875 18.3352 19.5398 18 19.125 18ZM12 20.8125C11.3789 20.8125 10.875 20.3086 10.875 19.6875H13.125C13.125 20.3086 12.6211 20.8125 12 20.8125ZM7.125 18V10.0312C7.125 8.72813 7.63125 7.50469 8.55234 6.58359C9.47344 5.6625 10.6969 5.15625 12 5.15625C13.3031 5.15625 14.5266 5.6625 15.4477 6.58359C16.3687 7.50469 16.875 8.72813 16.875 10.0312V18H7.125Z"/>
        </g>
    </symbol>
    <symbol id="info">
        <g>
            <path d="M12 1.5C6.20156 1.5 1.5 6.20156 1.5 12C1.5 17.7984 6.20156 22.5 12 22.5C17.7984 22.5 22.5 17.7984 22.5 12C22.5 6.20156 17.7984 1.5 12 1.5ZM12 20.7188C7.18594 20.7188 3.28125 16.8141 3.28125 12C3.28125 7.18594 7.18594 3.28125 12 3.28125C16.8141 3.28125 20.7188 7.18594 20.7188 12C20.7188 16.8141 16.8141 20.7188 12 20.7188Z"/>
            <path d="M10.875 7.875C10.875 8.17337 10.9935 8.45952 11.2045 8.6705C11.4155 8.88147 11.7016 9 12 9C12.2984 9 12.5845 8.88147 12.7955 8.6705C13.0065 8.45952 13.125 8.17337 13.125 7.875C13.125 7.57663 13.0065 7.29048 12.7955 7.0795C12.5845 6.86853 12.2984 6.75 12 6.75C11.7016 6.75 11.4155 6.86853 11.2045 7.0795C10.9935 7.29048 10.875 7.57663 10.875 7.875ZM12.5625 10.5H11.4375C11.3344 10.5 11.25 10.5844 11.25 10.6875V17.0625C11.25 17.1656 11.3344 17.25 11.4375 17.25H12.5625C12.6656 17.25 12.75 17.1656 12.75 17.0625V10.6875C12.75 10.5844 12.6656 10.5 12.5625 10.5Z"/>
        </g>
    </symbol>
</svg>
